<svg xmlns="http://www.w3.org/2000/svg" viewBox="0 0 120 96" fill="#ffffff">
  <path class="cls-1" d="M119.64,2.01c-.03-.19-.08-.36-.16-.53-.01-.03-.01-.06-.03-.09,0,0,0,0,0,0-.1-.2-.24-.37-.4-.52-.06-.05-.13-.09-.19-.13-.1-.07-.18-.15-.29-.21-.02,0-.04,0-.06-.02-.08-.04-.17-.05-.25-.07-.13-.04-.25-.07-.38-.08-.09,0-.17,0-.25,0-.14,0-.27,.02-.4,.06-.04,.01-.08,0-.12,.02L1.65,40.58c-.76,.26-1.27,.96-1.3,1.77-.03,.8,.44,1.54,1.17,1.85l34.84,14.97,9.48,35.05c.02,.06,.06,.12,.08,.18,.03,.08,.06,.15,.1,.22,.08,.16,.19,.3,.31,.42,.03,.03,.04,.07,.08,.11,.01,.01,.03,.01,.04,.02,.17,.15,.35,.27,.56,.35,.05,.02,.09,.02,.14,.03,.14,.04,.28,.09,.43,.1,.04,0,.09,0,.13,0h0c.24,0,.47-.06,.69-.14,.06-.02,.11-.05,.17-.08,.18-.09,.35-.21,.5-.36,.02-.02,.05-.03,.08-.05l20.16-22.19,34.71,13.53c.23,.09,.46,.13,.7,.13,.33,0,.67-.09,.96-.26,.51-.29,.86-.8,.95-1.38L119.65,2.58c.02-.1,0-.2,0-.31,0-.09,.01-.17,0-.26ZM60.1,69.24l5.34,2.08-11.56,12.72,6.22-14.8Zm-2.49-3.8s-.05,.11-.09,.16c-.09,.13-.2,.24-.27,.39l-9.15,21.77-7.9-29.19L104.71,13.69l-47.1,51.74ZM105.03,8.74L37.76,55.54,7.65,42.61,105.03,8.74Zm-1.85,73.13l-40.8-15.91L114.81,8.37l-11.62,73.5Z"/>
  <path d="M47.72,96h-.15c-.19-.02-.35-.07-.49-.11-.02,0-.17-.04-.19-.05-.24-.1-.47-.23-.67-.41-.1-.08-.13-.13-.15-.17-.14-.14-.26-.31-.35-.49-.05-.08-.08-.17-.12-.26-.04-.07-.07-.13-.09-.21l-9.44-34.88L1.38,44.52c-.86-.37-1.42-1.25-1.38-2.19,.03-.95,.64-1.77,1.53-2.08L116.98,.11s.12-.03,.15-.03c.13-.04,.28-.06,.47-.07,.14,0,.22-.01,.3,0,.16,.01,.3,.05,.44,.09V.45s.09-.34,.09-.34c.07,.02,.15,.04,.22,.07,.19,.08,.27,.15,.35,.21l.07,.06c.1,.07,.16,.11,.22,.16,.18,.17,.33,.36,.45,.58,.01,.02,.02,.03,.03,.05,.01,.03,.04,.1,.04,.13,.08,.19,.15,.39,.18,.6h0c0,.08,0,.16,0,.23v.16c0,.07,.01,.17,0,.27l-13.02,82.28c-.11,.69-.51,1.28-1.12,1.63-.59,.34-1.32,.4-1.97,.15l-34.49-13.45-20,22.01s-.09,.08-.12,.1c-.14,.14-.33,.28-.55,.39-.1,.05-.15,.08-.21,.1-.28,.11-.55,.16-.81,.16Zm-1.06-1.11s.02,.01,.02,.02c.15,.13,.3,.23,.47,.29,.04,0,.07,0,.11,.02,.16,.05,.26,.08,.36,.09h.1c.17,0,.35-.03,.56-.12,.04-.01,.06-.03,.09-.04,.21-.1,.34-.2,.46-.32,.02-.02,.08-.07,.11-.08l20.12-22.15c.1-.11,.25-.15,.38-.09l34.71,13.53c.45,.18,.96,.13,1.37-.1,.42-.24,.7-.65,.78-1.13L119.3,2.52s0-.07,0-.12v-.13s0-.1,0-.1c0-.04,0-.07,0-.11-.02-.14-.06-.28-.13-.43,0-.02-.02-.06-.03-.1-.09-.17-.2-.3-.32-.42-.1-.07-.13-.09-.16-.11l-.08-.07c-.06-.04-.1-.08-.15-.1-.09-.03-.13-.04-.16-.05l-.1-.03c-.12-.03-.21-.06-.31-.07-.05,0-.1,0-.15,0-.2,.01-.3,.03-.39,.05-.02,0-.1,.02-.12,.02L1.76,40.91c-.63,.22-1.04,.79-1.07,1.45-.02,.65,.36,1.26,.96,1.52l34.84,14.97c.1,.04,.17,.13,.2,.23l9.48,35.05s.06,.13,.07,.14c.03,.07,.05,.13,.08,.18,.07,.13,.15,.24,.25,.35,.01,.02,.05,.06,.07,.09Zm1.46-6.78h-.02c-.15-.01-.27-.11-.31-.26l-7.9-29.19c-.04-.14,.02-.29,.14-.38L104.52,13.41c.14-.1,.34-.08,.46,.06,.11,.13,.11,.33,0,.46l-47.08,51.73s-.07,.14-.08,.16l-.07,.09c-.06,.08-.12,.15-.15,.23l-9.15,21.77c-.05,.13-.18,.21-.32,.21Zm-7.5-29.39l7.57,27.98,8.75-20.84c.07-.16,.16-.28,.25-.38l.06-.08s.05-.12,.11-.19h0L102.38,15.74,40.61,58.71Zm13.27,25.68c-.07,0-.13-.02-.19-.05-.14-.09-.2-.27-.13-.43l6.22-14.8c.07-.17,.27-.26,.45-.19l5.34,2.08c.11,.04,.19,.13,.21,.24,.03,.11,0,.23-.08,.32l-11.56,12.72c-.07,.07-.16,.11-.26,.11Zm6.41-14.7l-5.3,12.62,9.86-10.85-4.55-1.78Zm42.9,12.53s-.08,0-.13-.02l-40.8-15.91c-.11-.04-.19-.13-.21-.24-.03-.11,0-.23,.08-.32L114.55,8.13c.1-.11,.27-.14,.41-.08,.14,.07,.22,.22,.19,.37l-11.62,73.5c-.02,.1-.08,.2-.17,.25-.05,.03-.11,.05-.17,.05Zm-40.2-16.4l39.93,15.57L114.28,9.46l-51.3,56.36Zm-25.21-9.93s-.09,0-.14-.03L7.51,42.93c-.13-.06-.22-.19-.21-.33,0-.14,.1-.27,.23-.32L104.92,8.41c.17-.06,.35,.02,.43,.17,.08,.16,.03,.34-.11,.44L37.96,55.83c-.06,.04-.13,.06-.2,.06Zm-29.16-13.25l29.12,12.51L102.76,9.9,8.61,42.64Z"/>
</svg>