<?xml version="1.0" encoding="UTF-8"?>
<svg id="Layer_1" data-name="Layer 1" xmlns="http://www.w3.org/2000/svg" viewBox="0 0 300 112">
  <defs>
    <style>
      .cls-1 {
        fill: #a8b0a1;
      }

      .cls-2 {
        fill: #ccc6c0;
      }

      .cls-3 {
        fill: #618364;
      }

      .cls-4 {
        fill: #3c6e4b;
      }

      .cls-5 {
        fill: #025a33;
      }

      .cls-6 {
        fill: #acacac;
      }

      .cls-7 {
        fill: #849881;
      }

      .cls-8 {
        fill: #010101;
      }
    </style>
  </defs>
  <g>
    <path class="cls-8" d="M137.32,46.4c0-17.28,13.22-29.37,30.84-29.37s30.75,12.09,30.75,29.37-13.13,29.37-30.75,29.37-30.84-12.09-30.84-29.37Zm46.48,0c0-9.28-6.13-16.43-15.64-16.43s-15.72,7.15-15.72,16.43,6.13,16.43,15.72,16.43,15.64-7.24,15.64-16.43Z"/>
    <path class="cls-8" d="M227.06,42.91h6.24c3.98,0,6.91-2.21,6.91-6.04s-2.94-6.13-6.91-6.13h-12.01v44.01h-14.86V17.97h28.85c12.96,0,20.04,8.6,20.04,18.9s-7.08,18.81-20.04,18.81h-8.23v-12.77Z"/>
    <path class="cls-8" d="M261.99,74.75V17.97h14.86V61.98h23.15v12.77h-38.01Z"/>
  </g>
  <g>
    <path class="cls-6" d="M203.77,93.1c0-2.48,1.86-4.14,4.17-4.14,1.44,0,2.43,.62,3.15,1.5l-.8,.49c-.51-.65-1.38-1.1-2.35-1.1-1.78,0-3.13,1.34-3.13,3.25s1.35,3.26,3.13,3.26c.97,0,1.78-.47,2.18-.86v-1.63h-2.79v-.89h3.8v2.89c-.75,.83-1.86,1.38-3.19,1.38-2.31,0-4.17-1.67-4.17-4.15Z"/>
    <path class="cls-6" d="M212.4,94.19c0-1.68,1.22-3.03,2.9-3.03,1.78,0,2.82,1.37,2.82,3.11v.23h-4.76c.07,1.09,.85,2,2.12,2,.67,0,1.35-.26,1.81-.73l.44,.59c-.58,.58-1.38,.89-2.34,.89-1.74,0-2.99-1.23-2.99-3.05Zm2.88-2.29c-1.25,0-1.87,1.04-1.92,1.93h3.86c-.01-.86-.6-1.93-1.94-1.93Z"/>
    <path class="cls-6" d="M219.26,94.19c0-1.68,1.12-3.03,2.91-3.03s2.91,1.36,2.91,3.03-1.12,3.05-2.91,3.05-2.91-1.37-2.91-3.05Zm4.86,0c0-1.17-.69-2.23-1.95-2.23s-1.96,1.06-1.96,2.23,.7,2.24,1.96,2.24,1.95-1.06,1.95-2.24Z"/>
    <path class="cls-6" d="M226.05,96.33l.47-.65c.39,.44,1.13,.83,1.94,.83,.9,0,1.39-.42,1.39-.99,0-1.4-3.64-.54-3.64-2.69,0-.9,.79-1.67,2.19-1.67,1,0,1.7,.37,2.18,.84l-.43,.62c-.35-.42-1-.73-1.75-.73-.8,0-1.3,.4-1.3,.91,0,1.27,3.64,.43,3.64,2.69,0,.97-.79,1.75-2.31,1.75-.96,0-1.78-.29-2.37-.91Z"/>
    <path class="cls-6" d="M231.89,94.19c0-1.71,1.18-3.03,2.93-3.03,1.07,0,1.7,.43,2.15,1.01l-.61,.55c-.39-.53-.89-.76-1.5-.76-1.25,0-2.03,.95-2.03,2.23s.78,2.24,2.03,2.24c.61,0,1.11-.24,1.5-.76l.61,.55c-.45,.58-1.08,1.01-2.15,1.01-1.75,0-2.93-1.32-2.93-3.05Z"/>
    <path class="cls-6" d="M238.1,89.87c0-.33,.28-.61,.61-.61s.62,.28,.62,.61-.28,.6-.62,.6-.61-.26-.61-.6Zm.16,7.22v-5.79h.91v5.79h-.91Z"/>
    <path class="cls-6" d="M240.66,94.19c0-1.68,1.22-3.03,2.9-3.03,1.78,0,2.82,1.37,2.82,3.11v.23h-4.76c.07,1.09,.85,2,2.12,2,.67,0,1.35-.26,1.81-.73l.44,.59c-.58,.58-1.38,.89-2.34,.89-1.74,0-2.99-1.23-2.99-3.05Zm2.88-2.29c-1.25,0-1.87,1.04-1.92,1.93h3.86c-.01-.86-.6-1.93-1.94-1.93Z"/>
    <path class="cls-6" d="M251.83,97.09v-3.79c0-1.02-.53-1.34-1.31-1.34-.72,0-1.4,.43-1.74,.9v4.23h-.91v-5.79h.91v.84c.41-.48,1.22-.98,2.09-.98,1.23,0,1.88,.61,1.88,1.87v4.07h-.91Z"/>
    <path class="cls-6" d="M254.23,94.19c0-1.71,1.18-3.03,2.93-3.03,1.07,0,1.7,.43,2.15,1.01l-.61,.55c-.39-.53-.89-.76-1.5-.76-1.25,0-2.03,.95-2.03,2.23s.78,2.24,2.03,2.24c.61,0,1.11-.24,1.5-.76l.61,.55c-.45,.58-1.08,1.01-2.15,1.01-1.75,0-2.93-1.32-2.93-3.05Z"/>
    <path class="cls-6" d="M260.26,94.19c0-1.68,1.22-3.03,2.9-3.03,1.78,0,2.82,1.37,2.82,3.11v.23h-4.76c.07,1.09,.85,2,2.12,2,.67,0,1.35-.26,1.81-.73l.44,.59c-.58,.58-1.38,.89-2.34,.89-1.74,0-2.99-1.23-2.99-3.05Zm2.88-2.29c-1.25,0-1.87,1.04-1.92,1.93h3.86c-.01-.86-.6-1.93-1.94-1.93Z"/>
    <path class="cls-6" d="M203.61,110.37l.6-.76c.54,.59,1.41,1.14,2.55,1.14,1.45,0,1.91-.77,1.91-1.38,0-2.06-4.81-.92-4.81-3.78,0-1.32,1.19-2.22,2.79-2.22,1.24,0,2.2,.41,2.89,1.12l-.61,.73c-.61-.66-1.46-.96-2.35-.96-.97,0-1.67,.52-1.67,1.27,0,1.8,4.81,.77,4.81,3.75,0,1.16-.8,2.35-2.99,2.35-1.41,0-2.45-.53-3.12-1.27Z"/>
    <path class="cls-6" d="M210.85,108.59c0-1.68,1.12-3.03,2.91-3.03s2.91,1.35,2.91,3.03-1.12,3.05-2.91,3.05-2.91-1.37-2.91-3.05Zm4.86,0c0-1.18-.69-2.23-1.95-2.23s-1.96,1.06-1.96,2.23,.71,2.24,1.96,2.24,1.95-1.06,1.95-2.24Z"/>
    <path class="cls-6" d="M218.16,111.49v-8h.91v8h-.91Z"/>
    <path class="cls-6" d="M224.87,111.49v-.82c-.45,.5-1.22,.96-2.09,.96-1.23,0-1.88-.59-1.88-1.85v-4.09h.91v3.81c0,1.02,.52,1.32,1.31,1.32,.72,0,1.4-.41,1.74-.88v-4.26h.91v5.79h-.91Z"/>
    <path class="cls-6" d="M227.8,110.28v-3.79h-.97v-.79h.97v-1.58h.91v1.58h1.19v.79h-1.19v3.6c0,.43,.19,.74,.6,.74,.26,0,.5-.11,.62-.24l.27,.67c-.23,.21-.56,.37-1.1,.37-.86,0-1.3-.49-1.3-1.36Z"/>
    <path class="cls-6" d="M231.04,104.28c0-.34,.28-.61,.61-.61s.62,.28,.62,.61-.28,.6-.62,.6-.61-.26-.61-.6Zm.16,7.22v-5.79h.91v5.79h-.91Z"/>
    <path class="cls-6" d="M233.59,108.59c0-1.68,1.12-3.03,2.91-3.03s2.91,1.35,2.91,3.03-1.12,3.05-2.91,3.05-2.91-1.37-2.91-3.05Zm4.86,0c0-1.18-.69-2.23-1.95-2.23s-1.96,1.06-1.96,2.23,.7,2.24,1.96,2.24,1.95-1.06,1.95-2.24Z"/>
    <path class="cls-6" d="M244.87,111.49v-3.79c0-1.02-.52-1.34-1.31-1.34-.72,0-1.4,.43-1.74,.9v4.23h-.91v-5.79h.91v.84c.41-.48,1.22-.98,2.09-.98,1.23,0,1.87,.61,1.87,1.87v4.06h-.91Z"/>
    <path class="cls-6" d="M247.1,110.73l.47-.65c.39,.44,1.13,.83,1.93,.83,.9,0,1.39-.42,1.39-.99,0-1.4-3.64-.54-3.64-2.69,0-.9,.79-1.67,2.19-1.67,1,0,1.7,.37,2.18,.84l-.43,.62c-.35-.42-1-.73-1.75-.73-.8,0-1.3,.39-1.3,.91,0,1.27,3.64,.43,3.64,2.69,0,.97-.79,1.75-2.31,1.75-.96,0-1.78-.29-2.37-.91Z"/>
    <path class="cls-6" d="M256.46,111.49v-8h3.26c1.63,0,2.54,1.1,2.54,2.41s-.94,2.41-2.54,2.41h-2.25v3.18h-1.01Zm4.76-5.59c0-.9-.66-1.52-1.62-1.52h-2.13v3.05h2.13c.96,0,1.62-.62,1.62-1.52Z"/>
    <path class="cls-6" d="M263.57,111.49v-5.79h.91v.93c.48-.61,1.16-1.06,1.96-1.06v.92c-.11-.02-.22-.04-.36-.04-.56,0-1.33,.45-1.6,.92v4.1h-.91Z"/>
    <path class="cls-6" d="M267.25,108.59c0-1.68,1.12-3.03,2.91-3.03s2.91,1.35,2.91,3.03-1.12,3.05-2.91,3.05-2.91-1.37-2.91-3.05Zm4.86,0c0-1.18-.69-2.23-1.95-2.23s-1.96,1.06-1.96,2.23,.7,2.24,1.96,2.24,1.95-1.06,1.95-2.24Z"/>
    <path class="cls-6" d="M276.13,111.49l-2.44-5.79h.98l1.96,4.75,1.95-4.75h1l-2.45,5.79h-1Z"/>
    <path class="cls-6" d="M280.37,104.28c0-.34,.28-.61,.61-.61s.62,.28,.62,.61-.28,.6-.62,.6-.61-.26-.61-.6Zm.16,7.22v-5.79h.91v5.79h-.91Z"/>
    <path class="cls-6" d="M287.53,111.49v-.86c-.44,.59-1.16,1.01-1.99,1.01-1.53,0-2.62-1.15-2.62-3.03s1.07-3.04,2.62-3.04c.79,0,1.51,.38,1.99,1.02v-3.08h.91v8h-.91Zm0-1.57v-2.63c-.33-.5-1.04-.93-1.77-.93-1.18,0-1.89,.96-1.89,2.24s.7,2.23,1.89,2.23c.73,0,1.44-.41,1.77-.91Z"/>
    <path class="cls-6" d="M289.93,108.59c0-1.68,1.22-3.03,2.9-3.03,1.78,0,2.82,1.37,2.82,3.11v.23h-4.76c.07,1.09,.85,2,2.12,2,.67,0,1.35-.26,1.81-.73l.44,.59c-.58,.58-1.38,.89-2.34,.89-1.74,0-2.99-1.23-2.99-3.05Zm2.88-2.29c-1.25,0-1.87,1.04-1.92,1.93h3.86c-.01-.86-.6-1.93-1.94-1.93Z"/>
    <path class="cls-6" d="M297.13,111.49v-5.79h.91v.93c.47-.61,1.16-1.06,1.96-1.06v.92c-.11-.02-.22-.04-.37-.04-.56,0-1.33,.45-1.59,.92v4.1h-.91Z"/>
  </g>
  <path class="cls-4" d="M114.43,64.12h-21.69c-6.84,0-13.21-5.72-17.42-9.51-1.04-.93-1.95-1.75-2.71-2.36-4.57-3.63-8.15-1.83-11.31-.25-.81,.4-1.68,.84-2.67,1.25-3.59,1.47-5.67,.79-10.28-1.38-5.5-2.6-9.02,.54-13.47,4.51-1.07,.96-2.27,2.02-3.65,3.18-5.96,4.95-13.65,4.66-13.87,4.66H.53c.26,1.88,.6,3.72,1.04,5.54h15.65c.05,0,.26,.01,.6,.01,2.26,0,10.35-.42,17.04-5.98,1.44-1.2,2.69-2.31,3.8-3.31,4.59-4.1,5.41-4.49,7.26-3.62,5.21,2.46,9.06,3.89,14.87,1.5,1.15-.48,2.16-.98,3.05-1.42,3-1.51,3.55-1.72,5.23-.38,.7,.55,1.52,1.29,2.45,2.13,4.56,4.1,12.19,10.95,21.21,10.95h20.66c.43-1.82,.78-3.66,1.03-5.54Z"/>
  <path class="cls-3" d="M111.8,75.11h-20.79c-6.05,0-9.96-2.01-13.74-3.95-.55-.28-1.08-.56-1.62-.82-4.53-2.25-6.57-1.96-10.62-1.38-.6,.08-1.26,.18-2,.27-3.91,.51-6.3-.48-10.63-2.28-.8-.33-1.64-.68-2.55-1.05-5.84-2.33-9.61,.31-13.61,3.11-1.33,.93-2.71,1.9-4.35,2.86-5.96,3.5-14.12,3.2-14.32,3.19H3.13c.66,1.89,1.42,3.74,2.27,5.54h12.05c.41,.02,9.89,.4,17.32-3.97,1.84-1.08,3.37-2.15,4.73-3.1,4-2.8,5.4-3.63,8.24-2.49,.88,.35,1.7,.69,2.48,1.02,4.54,1.88,8.13,3.37,13.54,2.67,.77-.1,1.45-.2,2.07-.28,3.67-.52,4.34-.62,7.29,.85,.51,.25,1.02,.52,1.55,.79,3.97,2.04,8.91,4.58,16.34,4.58h18.51c.86-1.8,1.61-3.65,2.28-5.54Z"/>
  <path class="cls-7" d="M106.14,86.75h-10.84c-1.67,0-3.29,0-4.77,0-6.18-.02-10.66-1.9-15.4-3.88l-.74-.31c-4.88-2.06-7.32-1.8-11.76-1.35l-.93,.1c-4.76,.48-7.74-.3-13.14-1.71l-.9-.23c-5.23-1.36-8.87,.63-12.72,2.73-1.31,.72-2.66,1.46-4.21,2.15-3.23,1.46-6.74,1.95-8.83,2.24-2.19,.3-4.92,.23-5.03,.23H8.79c1.23,1.93,2.57,3.78,4.02,5.54h3.96c.13,0,3.23,.09,5.89-.29,2.4-.33,6.42-.89,10.39-2.69,1.74-.79,3.26-1.62,4.59-2.34,3.72-2.04,5.64-2.98,8.56-2.22l.9,.23c5.65,1.47,9.37,2.44,15.15,1.87l.94-.1c4.17-.43,5.43-.56,8.96,.93l.75,.32c5.05,2.12,10.27,4.31,17.58,4.33,.57,0,1.16,0,1.76,0,.98,0,2,0,3.05,0h6.81c1.45-1.76,2.79-3.62,4.02-5.54Z"/>
  <path class="cls-1" d="M97.66,96.92c-1.1,0-2.2,.01-3.31,.02-6.64,.07-13.5,.14-23.03-2.21-12.82-3.16-18.81-1.91-27.1-.17-1.1,.23-2.25,.47-3.47,.71-9.68,1.91-21.38,1.66-21.56,1.66h-2.08c2.05,2,4.26,3.84,6.6,5.52,4.52-.1,11.65-.47,18.15-1.74,1.24-.25,2.41-.49,3.54-.72,7.83-1.64,13.01-2.72,24.57,.13,8.54,2.1,14.99,2.4,20.96,2.4,.09,0,.18,0,.27,0,2.37-1.7,4.6-3.56,6.68-5.58h-.2Z"/>
  <path class="cls-2" d="M84.83,106.46H30.11c4.69,2.51,9.78,4.39,15.15,5.54h24.43c5.36-1.15,10.45-3.03,15.15-5.54Z"/>
  <path class="cls-5" d="M114.82,53.13h0C112.98,23.53,87.97,0,57.47,0S1.8,23.67,.1,53.4c0,0,0,0,0,0H.1s0,0,0,0c-.06,1.08-.1,2.17-.1,3.26,0,.76,.03,1.52,.06,2.27H16.99s.21,0,.48,0c2.08,0,10.37-.49,17.36-7.95,1.17-1.25,2.2-2.38,3.13-3.4,4.58-5.04,5.24-5.43,6.08-4.93,3.6,2.13,8.05,3.69,13.76-.85,.76-.6,1.49-1.25,2.22-1.89,1.39-1.23,3.23-2.88,4.15-2.85,.23,.01,.61,.3,1.02,.75,.39,.44,.87,1.01,1.43,1.68,5.22,6.22,16.09,19.16,27.87,19.16h20.42c.02-.66,.05-1.33,.05-2,0-1.19-.05-2.37-.12-3.54Zm-20.35,0c-9.13,0-19.23-12.02-23.54-17.15-.59-.7-1.1-1.3-1.51-1.77-1.45-1.65-3.1-2.54-4.91-2.65-3.21-.18-5.78,2.06-8.26,4.25-.65,.58-1.31,1.16-2,1.7-2.91,2.31-4.45,2.12-7.34,.41-5.01-2.96-8.25,.6-13.15,5.98-.91,1-1.93,2.12-3.07,3.34-6.03,6.43-13.11,6.19-13.55,6.17H5.52C7.22,26.61,29.86,5.33,57.47,5.33s50.1,21.14,51.93,47.8h-14.93Z"/>
</svg>